<?xml version="1.0" encoding="UTF-8"?>
<!DOCTYPE svg PUBLIC "-//W3C//DTD SVG 1.1//EN" "http://www.w3.org/Graphics/SVG/1.1/DTD/svg11.dtd">
<!-- Creator: CorelDRAW -->
<svg xmlns="http://www.w3.org/2000/svg" xml:space="preserve" width="72mm" height="20mm" style="shape-rendering:geometricPrecision; text-rendering:geometricPrecision; image-rendering:optimizeQuality; fill-rule:evenodd; clip-rule:evenodd"
viewBox="0 0 72 20"
 xmlns:xlink="http://www.w3.org/1999/xlink">
 <defs>
  <style type="text/css">
   <![CDATA[
    .str0 {stroke:white;stroke-width:0.2}
    .fil1 {fill:white}
    .fil0 {fill:#579dc1}
    .fil2 {fill:white;fill-rule:nonzero}
    .fil3 {fill:#579dc1;fill-rule:nonzero}
   ]]>
  </style>
 </defs>
 <g id="Layer_x0020_1">
  <metadata id="CorelCorpID_0Corel-Layer"/>
  <g id="_41824392">
   <polygon id="_41826336" class="fil0" points="4.2864,16.9847 0.3613,14.818 0.3613,10 0.3613,5.182 4.7247,2.773 9.0881,0.364 13.4515,2.773 17.8149,5.182 17.8149,10 17.8149,14.818 13.4515,17.227 9.0881,19.636 4.7247,17.227 "/>
   <g>
    <path id="_41824920" class="fil1 str0" d="M10.0126 5.2587l-7.8321 0 0 8.9068c0.3115,-0.2656 0.7154,-0.4261 1.1568,-0.4261 0.3985,0 0.7665,0.1307 1.0635,0.3517l0 -7.112 3.3435 0 0.0012 7.5926 1.5369 -0.0004 0.7236 -1.5891 0.0066 -7.7235z"/>
    <path id="_41825424" class="fil1 str0" d="M3.3217 13.5733c0.9851,0 1.784,0.7989 1.784,1.784 0,0.9851 -0.7989,1.784 -1.784,1.784 -0.9851,0 -1.784,-0.7989 -1.784,-1.784 0,-0.9851 0.7989,-1.784 1.784,-1.784zm0 0.8038c0.5412,0 0.9802,0.439 0.9802,0.9802 0,0.5413 -0.439,0.9803 -0.9802,0.9803 -0.5413,0 -0.9803,-0.439 -0.9803,-0.9803 0,-0.5412 0.439,-0.9802 0.9803,-0.9802z"/>
    <path id="_41825112" class="fil2 str0" d="M10.7183 9.9483c0.334,-1.3538 1.2796,-2.2835 2.7667,-2.2835 1.105,0 1.6684,0.294 2.2628,0.8846 0.5937,0.5898 0.8907,1.4209 0.8907,2.492 0,1.1172 -0.2925,1.9746 -0.8799,2.572 -0.5866,0.5966 -1.1837,0.9521 -2.2466,0.9532l-4.2296 0.0047 0.3165 -1.6325c0.0263,0.0961 3.0182,0.0351 3.8954,0.0351 0.7813,0 1.2282,-0.4223 1.3407,-1.2683l-1.9957 0 0 -1.2283 2.005 0c-0.1295,-0.8522 -0.5826,-1.2775 -1.3593,-1.2775 -0.6056,0 -1.0094,0.2168 -1.2097,0.77l-1.557 -0.0215z"/>
   </g>
   <path id="_41825520" class="fil3" d="M18.7992 5.2336l4.017 0 0 5.0506 -1.0195 0 0 -4.2028 -1.9779 0 0 4.2028 -1.0196 0 0 -5.0506zm5.0589 5.0506l0 -5.0506 1.6357 0c0.6197,0 1.0242,0.0258 1.2124,0.0764 0.2893,0.0753 0.5327,0.2399 0.7279,0.4939 0.1952,0.254 0.2928,0.5821 0.2928,0.9831 0,0.3104 -0.0564,0.5715 -0.1693,0.782 -0.1129,0.2116 -0.2552,0.3774 -0.4292,0.4986 -0.1729,0.1199 -0.3493,0.1999 -0.528,0.2387 -0.2435,0.0482 -0.5962,0.0729 -1.0584,0.0729l-0.6644 0 0 1.905 -1.0195 0zm1.0195 -4.1957l0 1.4323 0.5574 0c0.4022,0 0.6715,-0.0259 0.8067,-0.0788 0.1352,-0.0529 0.2411,-0.1353 0.3187,-0.2482 0.0764,-0.1128 0.1152,-0.2434 0.1152,-0.3927 0,-0.1835 -0.0541,-0.3352 -0.1623,-0.4551 -0.107,-0.1188 -0.2446,-0.194 -0.4092,-0.2234 -0.1223,-0.0235 -0.3669,-0.0341 -0.7338,-0.0341l-0.4927 0zm3.3867 1.7015c0,-0.515 0.0765,-0.9466 0.2305,-1.2958 0.1152,-0.2564 0.2716,-0.488 0.4704,-0.6927 0.1987,-0.2034 0.4163,-0.3551 0.6526,-0.4539 0.3152,-0.134 0.6774,-0.1999 1.0889,-0.1999 0.7444,0 1.3394,0.2305 1.7863,0.6926 0.4468,0.461 0.6703,1.1031 0.6703,1.9251 0,0.816 -0.2223,1.4534 -0.6656,1.9144 -0.4433,0.4598 -1.036,0.6902 -1.7769,0.6902 -0.7514,0 -1.3488,-0.2293 -1.7921,-0.6867 -0.4433,-0.4586 -0.6644,-1.0901 -0.6644,-1.8933zm1.0501 -0.0341c0,0.5715 0.1329,1.0055 0.3963,1.3006 0.2646,0.2952 0.5997,0.4422 1.0066,0.4422 0.4057,0 0.7397,-0.1458 1.0007,-0.4398 0.2599,-0.2928 0.3904,-0.7315 0.3904,-1.3171 0,-0.5785 -0.127,-1.0101 -0.3798,-1.2958 -0.254,-0.2846 -0.5915,-0.4269 -1.0113,-0.4269 -0.421,0 -0.7596,0.1446 -1.0172,0.4327 -0.2563,0.2881 -0.3857,0.7221 -0.3857,1.3041zm4.6309 2.5283l0 -5.0506 1.5263 0 0.9161 3.4455 0.9055 -3.4455 1.5298 0 0 5.0506 -0.9466 0 0 -3.9758 -1.0031 3.9758 -0.9819 0 -0.9995 -3.9758 0 3.9758 -0.9466 0zm7.5342 -2.9046l0 0.5962 1.8779 0c-0.0258,0.568 -0.1834,1.0149 -0.4727,1.3418 -0.2893,0.3281 -0.6597,0.4915 -1.1124,0.4915 -0.8044,0 -1.3077,-0.428 -1.5123,-1.2817l-0.6444 0.1681c0.2916,1.1172 0.9948,1.6745 2.1085,1.6745 0.7972,0 1.3899,-0.2563 1.7791,-0.7702 0.3893,-0.5127 0.5715,-1.1454 0.5469,-1.8956 0,-0.4598 -0.0871,-0.8784 -0.2611,-1.2582 -0.1729,-0.3787 -0.4386,-0.6903 -0.7973,-0.9337 -0.3586,-0.2435 -0.7855,-0.3646 -1.2818,-0.3646 -0.5232,0 -0.9619,0.1294 -1.3135,0.3893 -0.3528,0.2598 -0.5915,0.6197 -0.7149,1.0818l0.6538 0.1717c0.1905,-0.7044 0.6503,-1.0572 1.3782,-1.0572 0.4915,0 0.8772,0.1482 1.1559,0.4445 0.2787,0.2964 0.4328,0.6974 0.4598,1.2018l-1.8497 0zm3.5936 -2.146l3.1633 0 0 5.0506 -0.6691 0 0 -4.4544 -1.8251 0 0 2.6011c0,0.528 -0.0247,0.9149 -0.0741,1.1607 -0.0493,0.2457 -0.154,0.4374 -0.3116,0.5738 -0.1587,0.1364 -0.3598,0.2046 -0.6032,0.2046 -0.147,0 -0.3234,-0.027 -0.5304,-0.0823l0.1129 -0.5926c0.1106,0.0458 0.2046,0.0693 0.2834,0.0693 0.1517,0 0.2646,-0.0576 0.341,-0.1705 0.0753,-0.114 0.1129,-0.3822 0.1129,-0.8043l0 -3.556zm4.2769 5.0506l0 -5.0506 3.6512 0 0 0.5962 -2.9833 0 0 1.5463 2.794 0 0 0.5927 -2.794 0 0 1.7192 3.1009 0 0 0.5962 -3.7688 0zm4.7025 -5.0506l0.668 0 0 2.2119c0.3057,0 0.5197,-0.0588 0.6444,-0.1776 0.1235,-0.1187 0.2822,-0.4021 0.4751,-0.8525 0.1399,-0.3305 0.2551,-0.5645 0.3469,-0.7009 0.0905,-0.1364 0.2199,-0.2516 0.3868,-0.3445 0.1682,-0.0929 0.3528,-0.14 0.5551,-0.14 0.2575,0 0.3927,0.0024 0.4069,0.0071l0 0.5786c-0.0236,0 -0.0682,-0.0012 -0.1353,-0.0036 -0.0729,-0.0023 -0.1176,-0.0035 -0.134,-0.0035 -0.2141,0 -0.3716,0.0517 -0.4751,0.1552 -0.1058,0.1035 -0.227,0.3246 -0.3622,0.6621 -0.1693,0.4268 -0.3128,0.6961 -0.4304,0.8078 -0.1176,0.1106 -0.2575,0.1999 -0.4198,0.267 0.3257,0.0893 0.6468,0.3904 0.9643,0.9019l1.0407 1.6816 -0.8302 0 -0.8444 -1.3711c-0.2316,-0.3787 -0.4268,-0.6386 -0.582,-0.7809 -0.1564,-0.1411 -0.3587,-0.2116 -0.6068,-0.2116l0 2.3636 -0.668 0 0 -5.0506zm5.3847 5.0506l0 -4.4544 -1.664 0 0 -0.5962 4.0029 0 0 0.5962 -1.671 0 0 4.4544 -0.6679 0zm3.0245 0l0 -5.0506 1.905 0c0.3351,0 0.5915,0.0164 0.7679,0.0482 0.2481,0.0411 0.4562,0.1199 0.6244,0.2363 0.167,0.1153 0.3022,0.2787 0.4045,0.4869 0.1023,0.2093 0.1529,0.4386 0.1529,0.6891 0,0.4292 -0.1364,0.7937 -0.4093,1.0912 -0.274,0.2964 -0.7678,0.4457 -1.4816,0.4457l-1.2959 0 0 2.0532 -0.6679 0zm0.6679 -2.6494l1.3064 0c0.4316,0 0.7385,-0.0799 0.9196,-0.241 0.1811,-0.1611 0.2717,-0.3869 0.2717,-0.6786 0,-0.2116 -0.0529,-0.3927 -0.16,-0.5432 -0.107,-0.1506 -0.2469,-0.2493 -0.4221,-0.2976 -0.1129,-0.0293 -0.3199,-0.0446 -0.6233,-0.0446l-1.2923 0 0 1.805zm3.6795 0.1893c0,-0.8384 0.2246,-1.4946 0.675,-1.9685 0.4504,-0.4739 1.0313,-0.7114 1.7439,-0.7114 0.4657,0 0.8867,0.1117 1.2606,0.334 0.374,0.2234 0.6597,0.5338 0.8561,0.9325 0.1964,0.3974 0.294,0.8502 0.294,1.3547 0,0.5127 -0.1023,0.9713 -0.3093,1.3746 -0.207,0.4045 -0.4998,0.7103 -0.8784,0.9184 -0.3798,0.2082 -0.7879,0.3116 -1.2265,0.3116 -0.4763,0 -0.9008,-0.114 -1.2747,-0.3445 -0.3751,-0.2293 -0.6585,-0.5433 -0.8514,-0.9408 -0.1929,-0.3962 -0.2893,-0.8172 -0.2893,-1.2606zm0.6891 0.0106c0,0.6092 0.1635,1.0878 0.4904,1.4382 0.3281,0.3504 0.7385,0.5256 1.2324,0.5256 0.5033,0 0.9172,-0.1764 1.2417,-0.5303 0.3246,-0.354 0.4881,-0.8561 0.4881,-1.5064 0,-0.4104 -0.0706,-0.769 -0.2094,-1.076 -0.1387,-0.3069 -0.3422,-0.5444 -0.6091,-0.7137 -0.2681,-0.1682 -0.568,-0.2529 -0.9008,-0.2529 -0.4739,0 -0.8807,0.1623 -1.2218,0.488 -0.341,0.3246 -0.5115,0.8679 -0.5115,1.6275z"/>
  </g>
 </g>
</svg>
